<mxfile host="app.diagrams.net" modified="2023-09-22T17:42:05.715Z" agent="Mozilla/5.0 (Windows NT 10.0; Win64; x64) AppleWebKit/537.36 (KHTML, like Gecko) Chrome/116.0.0.0 Safari/537.36" etag="r3o6LLaP-RKJCXA0pd6m" version="21.8.0" type="device">
  <diagram name="Page-1" id="1zVlawVud8rYYiN74Ek5">
    <mxGraphModel dx="1034" dy="772" grid="1" gridSize="10" guides="1" tooltips="1" connect="1" arrows="1" fold="1" page="1" pageScale="1" pageWidth="827" pageHeight="1169" math="0" shadow="0">
      <root>
        <mxCell id="0" />
        <mxCell id="1" parent="0" />
        <mxCell id="jV2O9Zg2_ixv_O63T7dN-1" value="LLM" style="sketch=0;outlineConnect=0;fontColor=#232F3E;gradientColor=none;fillColor=#01A88D;strokeColor=none;dashed=0;verticalLabelPosition=bottom;verticalAlign=top;align=center;html=1;fontSize=12;fontStyle=0;aspect=fixed;pointerEvents=1;shape=mxgraph.aws4.sagemaker_model;" vertex="1" parent="1">
          <mxGeometry x="520" y="260" width="78" height="78" as="geometry" />
        </mxCell>
        <mxCell id="jV2O9Zg2_ixv_O63T7dN-2" value="Evernote Notes" style="dashed=0;outlineConnect=0;html=1;align=center;labelPosition=center;verticalLabelPosition=bottom;verticalAlign=top;shape=mxgraph.weblogos.evernote;fillColor=#3F3F3F" vertex="1" parent="1">
          <mxGeometry x="190" y="262.8" width="63.400000000000006" height="75.2" as="geometry" />
        </mxCell>
        <mxCell id="jV2O9Zg2_ixv_O63T7dN-3" value="" style="html=1;labelBackgroundColor=#ffffff;startArrow=classic;startFill=1;startSize=6;endArrow=classic;endFill=1;endSize=6;jettySize=auto;orthogonalLoop=1;strokeWidth=1;fontSize=14;rounded=0;" edge="1" parent="1">
          <mxGeometry width="60" height="60" relative="1" as="geometry">
            <mxPoint x="270" y="300" as="sourcePoint" />
            <mxPoint x="500" y="300" as="targetPoint" />
          </mxGeometry>
        </mxCell>
      </root>
    </mxGraphModel>
  </diagram>
</mxfile>
